<svg width="24" height="24" viewBox="0 0 24 24" fill="none" xmlns="http://www.w3.org/2000/svg">
<path fill-rule="evenodd" clip-rule="evenodd" d="M13.2803 11.2197C13.5732 11.5126 13.5732 11.9874 13.2803 12.2803L7.28033 18.2803C6.98744 18.5732 6.51256 18.5732 6.21967 18.2803C5.92678 17.9874 5.92678 17.5126 6.21967 17.2197L11.6893 11.75L6.21967 6.28033C5.92678 5.98744 5.92678 5.51256 6.21967 5.21967C6.51256 4.92678 6.98744 4.92678 7.28033 5.21967L13.2803 11.2197Z" fill="black"/>
<path fill-rule="evenodd" clip-rule="evenodd" d="M19.2803 11.2197C19.5732 11.5126 19.5732 11.9874 19.2803 12.2803L13.2803 18.2803C12.9874 18.5732 12.5126 18.5732 12.2197 18.2803C11.9268 17.9874 11.9268 17.5126 12.2197 17.2197L17.6893 11.75L12.2197 6.28033C11.9268 5.98744 11.9268 5.51256 12.2197 5.21967C12.5126 4.92678 12.9874 4.92678 13.2803 5.21967L19.2803 11.2197Z" fill="black"/>
</svg>
