<svg width="24" height="24" viewBox="0 0 24 24" fill="none" xmlns="http://www.w3.org/2000/svg">
<path fill-rule="evenodd" clip-rule="evenodd" d="M5.21967 11.2197C4.92678 11.5126 4.92678 11.9874 5.21967 12.2803L11.2197 18.2803C11.5126 18.5732 11.9874 18.5732 12.2803 18.2803C12.5732 17.9874 12.5732 17.5126 12.2803 17.2197L6.81066 11.75L12.2803 6.28033C12.5732 5.98744 12.5732 5.51256 12.2803 5.21967C11.9874 4.92678 11.5126 4.92678 11.2197 5.21967L5.21967 11.2197Z" fill="black"/>
<path fill-rule="evenodd" clip-rule="evenodd" d="M10.7197 11.2197C10.4268 11.5126 10.4268 11.9874 10.7197 12.2803L16.7197 18.2803C17.0126 18.5732 17.4874 18.5732 17.7803 18.2803C18.0732 17.9874 18.0732 17.5126 17.7803 17.2197L12.3107 11.75L17.7803 6.28033C18.0732 5.98744 18.0732 5.51256 17.7803 5.21967C17.4874 4.92678 17.0126 4.92678 16.7197 5.21967L10.7197 11.2197Z" fill="black"/>
</svg>
